# xmcd CD database file
#
# Track frame offsets:
#	150
#	15833
#	27372
#	36766
#	55839
#	82913
#	102524
#	120071
#	141997
#	165563
#	178078
#	196656
#	225276
#	239650
#	262840
#	279997
#	293533
#	321080
#
# Disc length: 4582 seconds
#
# Revision: 0
# Processed by: cddbd v1.5.2PL0 Copyright (c) Steve Scherf et al.
# Submitted via: CDex 1.70beta2
#
DISCID=dc11e412
DTITLE=Various Artist - Best Jazz Ballads 100 Vol.4
DYEAR=2007
DGENRE=Jazz
TTITLE0=Miles Davis - I Waited For You
TTITLE1=Hank Jones - My One And Only Love
TTITLE2=Julie London - What A Difference A Day Made
TTITLE3=John Lewis Feat Bill Perkins - Easy Living
TTITLE4=Horace Silver - Peace
TTITLE5=Sonny Stitt - Come Rain Or Come Shine
TTITLE6=Jimmy Smith - Tenderly
TTITLE7=Count Basie and Sarah Vaughan - You Go To My Head
TTITLE8=McCoy Tyner - You Taught My Heart To Sing
TTITLE9=Stan Gets - IT Might As Well Be Sprihg
TTITLE10=Thad Jones and Mel Lewis - A Child Is Born
TTITLE11=Lou Donaldson - Old Folks
TTITLE12=Dinah Shore - That Old Feeling
TTITLE13=Ike Quebec - Imagination
TTITLE14=Eddie Higgins - Someone To Watch Over Me
TTITLE15=Annie Ross - I've Grown Accustomed To Your Face
TTITLE16=Stanley Turrentine - More Than You Know
TTITLE17=Dizzy Reece - A Ghost Of A Chance
EXTD=YEAR: 2007
EXTT0=
EXTT1=
EXTT2=
EXTT3=
EXTT4=
EXTT5=
EXTT6=
EXTT7=
EXTT8=
EXTT9=
EXTT10=
EXTT11=
EXTT12=
EXTT13=
EXTT14=
EXTT15=
EXTT16=
EXTT17=
PLAYORDER=
